<svg xmlns="http://www.w3.org/2000/svg" xmlns:xlink="http://www.w3.org/1999/xlink" preserveAspectRatio="xMidYMid" width="89" height="101" viewBox="0 0 89 101">
  <defs>
    <style>
      .cls-1 {
        fill: #0f1314;
        fill-rule: evenodd;
      }
    </style>
  </defs>
  <path d="M0.003,75.537 C2.638,66.306 5.030,56.830 9.694,49.622 C15.747,48.189 22.614,47.568 25.995,43.472 C25.300,41.010 22.314,37.942 23.352,36.444 C25.161,32.975 32.425,34.948 35.248,32.490 C38.222,28.214 38.341,22.294 37.891,17.556 C41.709,12.527 47.537,9.830 54.632,6.576 C59.841,4.183 67.250,0.683 70.052,2.620 C73.683,1.847 76.370,0.136 80.627,-0.014 C80.628,1.598 79.085,1.668 78.424,2.620 C81.692,2.660 83.476,1.214 86.795,1.304 C86.294,3.878 83.495,4.162 81.508,5.257 C83.042,6.086 87.040,3.601 88.997,4.817 C88.997,4.963 88.997,5.109 88.997,5.257 C87.308,6.648 85.717,8.135 82.830,8.332 C83.304,9.615 86.760,7.926 87.236,9.209 C78.689,14.892 69.747,20.180 62.122,26.779 C61.110,29.278 61.083,31.030 61.241,32.931 C57.775,37.525 55.932,43.744 54.632,50.500 C62.047,55.993 71.229,59.725 80.627,63.238 C78.836,66.815 73.031,65.829 70.052,67.191 C69.810,71.491 71.456,75.846 69.173,78.612 C62.644,70.918 55.455,63.882 47.142,57.967 C43.521,59.702 38.388,62.348 33.925,64.556 C33.062,66.463 30.730,68.297 28.198,67.191 C22.899,73.914 17.333,80.372 15.422,90.472 C14.642,90.857 14.135,91.864 13.219,90.912 C13.238,94.737 13.570,98.875 10.575,99.696 C10.203,98.019 9.833,96.337 9.694,94.425 C8.813,96.620 8.646,99.529 7.050,101.014 C6.758,101.014 6.464,101.014 6.170,101.014 C5.971,99.906 5.888,98.712 5.730,96.621 C4.757,97.116 5.045,98.866 3.967,99.257 C2.092,96.944 3.677,91.709 0.882,91.350 C0.555,87.869 1.679,82.942 0.003,80.808 C0.003,79.052 0.003,77.294 0.003,75.537 Z" class="cls-1"/>
</svg>
